<svg width="20" height="21" viewBox="0 0 20 21" fill="none" xmlns="http://www.w3.org/2000/svg">
<path d="M5.28552 1.30994C6.06445 1.56433 6.80546 1.91599 7.48964 2.35594C8.45591 2.11785 9.44947 1.99824 10.4468 1.99994C11.4768 1.99994 12.4704 2.12394 13.4019 2.35494C14.0858 1.91542 14.8264 1.5641 15.605 1.30994C16.3279 1.07294 17.3579 0.68894 17.9699 1.34194C18.3847 1.78594 18.4885 2.52994 18.5621 3.09794C18.6451 3.73194 18.6648 4.55794 18.447 5.37794C19.2799 6.41494 19.7819 7.65194 19.7819 8.99994C19.7819 11.0419 18.6347 12.8149 16.9368 14.0429C16.1196 14.6265 15.2133 15.0839 14.2503 15.3989C14.4723 15.8889 14.5957 16.4309 14.5957 16.9999V19.9999C14.5957 20.2652 14.4865 20.5195 14.2919 20.707C14.0974 20.8946 13.8336 20.9999 13.5585 20.9999H7.33509C7.06 20.9999 6.79618 20.8946 6.60166 20.707C6.40714 20.5195 6.29786 20.2652 6.29786 19.9999V19.0089C5.3073 19.1259 4.47648 19.0219 3.77012 18.7329C3.03161 18.4309 2.51714 17.9629 2.13025 17.5149C1.76307 17.0909 1.3627 16.1349 0.783925 15.9489C0.65466 15.9074 0.535139 15.8418 0.432186 15.7558C0.329232 15.6697 0.244863 15.565 0.183895 15.4475C0.0607645 15.2103 0.0404267 14.9356 0.127356 14.6839C0.214285 14.4322 0.401359 14.2242 0.647426 14.1054C0.893493 13.9867 1.17839 13.9671 1.43946 14.0509C2.13025 14.2729 2.58041 14.7529 2.88847 15.1389C3.38634 15.7589 3.79087 16.5689 4.57916 16.8919C4.90382 17.0249 5.37991 17.1119 6.12464 17.0139L6.29786 16.9799C6.29984 16.4357 6.41739 15.8977 6.64326 15.3989C5.68028 15.084 4.77397 14.6265 3.95682 14.0429C2.25887 12.8149 1.11169 11.0429 1.11169 8.99994C1.11169 7.65394 1.61267 6.41794 2.4435 5.38194C2.22568 4.56194 2.24435 3.73394 2.32733 3.09894L2.33251 3.06094C2.40823 2.47894 2.4964 1.79394 2.91959 1.34194C3.53156 0.68894 4.56257 1.07394 5.28448 1.31094L5.28552 1.30994Z" fill="white"/>
</svg>
